<?xml version="1.0" encoding="utf-8" ?><svg xmlns="http://www.w3.org/2000/svg" xmlns:xlink="http://www.w3.org/1999/xlink" width="4096" height="4096" viewBox="0 0 4096 4096">
    <style>
      .main { fill: #0E2539; }
      .sec { fill: #A4A3E6; transform: translateX(300px); }

      @media (prefers-color-scheme: dark) {
        .main { fill: #ffffff; }
        .sec { fill: #45CACC; transform: translateX(300px); }
      }
    </style>
    <path class="main" d="M2176.43 211.925C2201.95 209.211 2529.16 290.172 2553.9 304.373C2570.69 337.146 2568.33 400.268 2569.63 438.694L2575.77 622.04C2576.71 648.886 2576.37 690.488 2585.35 714.17C2595.84 741.826 2677.95 781.321 2705.59 792.809L2451.93 1095.73C2233.96 974.935 1980.62 934.133 1735.74 980.388C1457.56 1033.18 1211.88 1194.64 1053.06 1429.04C893.607 1663.45 834.623 1951.93 889.276 2230.11C943.524 2507.24 1105.56 2751.5 1339.78 2909.23C1574.37 3066.07 1861.34 3124.07 2138.43 3070.64C2420.14 3015.41 2667.69 2848.97 2825.15 2608.93L3156.73 2800.27C3125.73 2828.54 3064.9 2915.39 3048.95 2955.55C3043.3 2969.79 3077.31 3052.7 3084.89 3072.78L3149.34 3242.95C3160.66 3272.96 3177.09 3309.11 3179.05 3341.19C3179.81 3353.7 3172.78 3363.76 3163.29 3371.55C3098.91 3424.42 3030.35 3472.4 2964.76 3523.81C2945.59 3538.8 2926.1 3554.37 2904.71 3565.91C2890.62 3573.51 2884.21 3572.51 2868.91 3571.9C2817.24 3537.23 2591.12 3341.85 2562.05 3334.43C2535.98 3327.78 2385.35 3386.74 2360.88 3402.56C2352.34 3408.08 2344.96 3415.06 2340.63 3424.39C2329.51 3448.31 2325.87 3481.32 2320.16 3507.36C2306.35 3570.4 2293.68 3633.7 2279.49 3696.65C2273.48 3725.35 2263.32 3787.83 2248.64 3810.82C2201.16 3840.76 1979.81 3842.1 1914.98 3846.07C1866.58 3849.03 1849.25 3761.66 1835.95 3721.8L1779.34 3552.42C1770.56 3526.55 1762.77 3498.1 1749.84 3474.05C1744.47 3464.06 1737.5 3454.26 1726.93 3449.33C1703.25 3438.31 1560.94 3407.57 1531.65 3404.61C1523.33 3403.77 1514.82 3403.64 1506.71 3405.97C1478.33 3414.12 1316.64 3586.35 1281.76 3621.3C1262.92 3640.17 1237.25 3672.66 1212.13 3681.8C1197.88 3686.98 1185 3680.45 1172.21 3674.2C1127.56 3652.39 1084.68 3625.78 1041.29 3601.53C1005.27 3581.4 934.431 3546.49 905.379 3520.62C896.906 3513.07 894.385 3505.16 890.825 3494.77C907.438 3411.3 931.07 3328.67 952.138 3246.21C961.176 3210.83 972.322 3174.68 977.884 3138.61C979.725 3126.67 981.708 3113.55 976.562 3102.22C964.113 3074.81 927.275 3043.6 905.637 3021.26C885.783 3000.75 840.116 2946.06 816.509 2938.01C762.691 2919.65 452.111 3026.53 410.64 3005.76C403.064 3001.96 398.157 2994.96 393.552 2988.08C367.452 2949.08 344.071 2897.09 322.277 2854.96C299.042 2810.05 271.658 2764.24 253.131 2717.28C248.621 2705.84 243.891 2693.01 249.123 2681.08C259.482 2657.46 288.768 2635.69 307.566 2617.95C345.597 2582.05 522.573 2425.16 534.483 2395.06C544.095 2370.77 512.475 2207.87 500.895 2181.46C497.125 2172.86 491.664 2165.32 483.497 2160.47C453.913 2142.9 400.016 2127.01 366.408 2114.61C281.542 2083.69 196.84 2052.33 112.304 2020.53C109.17 1965.64 132.724 1693.67 154.452 1653.03C158.876 1644.75 167.49 1640.92 175.906 1637.81C203.547 1627.6 235.908 1623.87 264.903 1618.61L447.298 1585.56C490.494 1577.61 562.015 1574.95 579.575 1531.38C599.368 1482.27 633.873 1423.28 641.505 1371.32C644.426 1351.44 584.89 1278.24 570.9 1259.72L461.46 1114.58C445.49 1093.09 420.535 1066.44 412.993 1040.89C410.208 1031.45 411.25 1024.39 416.155 1015.97C433.11 986.882 627.548 743.157 644.883 738.181C696.014 723.504 1000.6 893.609 1049.73 877.346C1076.04 868.636 1153.06 813.86 1173.36 794.184C1181.86 785.955 1191.55 774.425 1195.2 763.011C1199.3 750.205 1192.43 711.23 1191.19 696.243L1175.71 502.841C1173.39 473.478 1155.08 368.067 1189.78 355.65C1302.24 315.403 1418.45 273.334 1533.5 241.272L1536.22 242C1543.98 244.018 1552.27 245.766 1558.3 251.307C1578.29 269.684 1596.31 298.977 1611.94 321.479L1722.73 480.845C1742.71 509.25 1763.55 542.68 1787.76 567.088C1793.53 572.908 1805.16 577.968 1812.84 581.555C1976.27 566.944 1943.46 613.757 2023.71 463.972C2052.39 409.67 2081.51 355.606 2111.08 301.787C2124.66 276.849 2139.4 247.062 2156.75 224.716C2161.54 218.544 2169.4 215.113 2176.43 211.925Z"/>

    <path class="sec" d="M3292 587.681C3303.9 587.654 3322.4 587.185 3331.9 595.258C3362.39 622.456 3392.05 652.63 3420.22 682.369C3476.15 741.405 3537.12 798.921 3590.8 859.861C3592.69 870.214 3594.51 878.36 3590.99 888.491C3581.51 915.819 3563.02 944.367 3548.2 969.397L3449.27 1136.86C3438.31 1155.58 3392.77 1225.08 3399.98 1245.11C3412.97 1281.16 3446.55 1356.3 3478.71 1378.91C3491.1 1387.61 3554.86 1390.22 3573.96 1391.45L3764.31 1403.7C3792.53 1405.57 3893.8 1404.28 3901.02 1436.41C3927.46 1554.01 3958.29 1674.53 3979.25 1793.12C3974.38 1805.96 3972.18 1809.98 3965.39 1821.66C3938.98 1836.92 3902.99 1854.3 3875.49 1868.18L3723.38 1944.84C3686.44 1963.53 3607.84 1991.8 3605.85 2036.08C3604.03 2076.66 3598.54 2122.2 3598.01 2162.68C3597.58 2195.3 3664.94 2238.11 3689.3 2256.04L3836.92 2364.93C3861.54 2383.22 3886.9 2401.08 3910.28 2421.08C3939.3 2445.89 3932.85 2465.79 3921.16 2497.48C3884.03 2598.05 3848.42 2700.23 3807.94 2799.44C3796.87 2807.08 3790.88 2809.64 3778.7 2815.28L3719.64 2808.75C3614.84 2801.31 3508.55 2780.29 3403.48 2778.66C3397.68 2778.57 3385.71 2783.99 3380.07 2786.46C3347.35 2770.56 3298.58 2740.37 3265.3 2721.14L3046.68 2595.07C3058.19 2577.15 3069.28 2558.96 3079.94 2540.53C3220.35 2294.6 3257.97 2003.17 3184.6 1729.64C3108.33 1446.19 2924.36 1219.78 2671.6 1074.06L2926.74 769.643C2934.55 771.581 2946.82 774.76 2954.44 771.455C2988.7 756.59 3026.57 734.727 3059.16 716.822L3292 587.681Z"/>
</svg>