<?xml version="1.0" encoding="utf-8" ?><svg xmlns="http://www.w3.org/2000/svg" xmlns:xlink="http://www.w3.org/1999/xlink" viewBox="0 0 1024 1024"><path fill="#022F60" d="M439.633 85.3468C453.108 84.111 459.989 80.4083 472.389 77.3064C487.387 73.7054 502.583 70.9899 517.899 69.1738C623.393 56.7545 729.388 87.9064 811.387 155.43C892.491 221.724 943.515 317.86 952.967 422.184C959.614 496.388 945.938 576.826 910.436 642.77C905.526 651.932 900.277 660.909 894.697 669.679C891.293 674.917 877.418 694.574 876.103 698.388C875.251 708.214 871.771 716.526 867.663 725.393C843.631 777.261 808.281 820.871 764.675 857.566C685.996 923.227 584.364 954.767 482.335 945.184C377.57 936.314 280.634 886.14 212.9 805.725C204.253 795.557 196.218 784.884 188.837 773.763C184.54 767.201 176.454 753.448 171.83 748.044C168.817 746.054 165.961 743.533 163.311 741.091L166.83 737.157C111.395 622.779 116.217 499.003 179.041 388.656C182.64 381.672 184.436 378.759 189.825 373.236C215.008 261.732 286.702 166.333 386.802 111.131C397.035 105.594 407.081 100.714 417.689 95.9906C423.841 93.2516 436.009 90.2821 439.633 85.3468Z"/><defs><linearGradient id="gradient_0" gradientUnits="userSpaceOnUse" x1="295.11716" y1="878.52032" x2="577.74115" y2="486.76825"><stop offset="0" stop-color="#E9FE5C"/><stop offset="1" stop-color="#C0D970"/></linearGradient></defs><path fill="url(#gradient_0)" d="M179.041 388.656C180.86 388.158 181.875 387.65 183.638 388.249C185.053 389.341 185.399 390.456 186.183 392.07C184.464 400.898 183.628 410.117 182.743 419.071C174.041 507.072 192.014 595.646 242.316 669.193C301.881 756.284 386.538 819.956 491.157 840.154C592.987 859.901 698.495 838.62 784.709 780.945C808.559 764.762 832.672 743.598 853.57 723.616C860.154 717.321 869.52 703.898 876.103 698.388C875.251 708.214 871.771 716.526 867.663 725.393C843.631 777.261 808.281 820.871 764.675 857.566C685.996 923.227 584.364 954.767 482.335 945.184C377.57 936.314 280.634 886.14 212.9 805.725C204.253 795.557 196.218 784.884 188.837 773.763C184.54 767.201 176.454 753.448 171.83 748.044C168.817 746.054 165.961 743.533 163.311 741.091L166.83 737.157C111.395 622.779 116.217 499.003 179.041 388.656Z"/><path fill="#37909C" d="M166.83 737.157C168.66 740.658 170.68 744.263 171.83 748.044C168.817 746.054 165.961 743.533 163.311 741.091L166.83 737.157Z"/><path fill="#B7F1B3" d="M179.041 388.656C182.64 381.672 184.436 378.759 189.825 373.236L186.183 392.07C185.399 390.456 185.053 389.341 183.638 388.249C181.875 387.65 180.86 388.158 179.041 388.656Z"/><path fill="#FEFEFE" d="M194.608 456.786C193.117 426.557 220.958 362.297 236.068 335.338C243.621 321.861 261.501 299.367 272.025 287.766C316.113 239.39 374.014 205.746 437.874 191.4C447.017 189.418 456.59 188.386 465.874 187.144C561.036 174.417 657.521 200.846 728.867 265.943C786.42 317.928 821.095 390.553 825.334 467.992C826.355 490.821 824.691 515.158 820.126 537.531C818.872 543.367 818.212 550.89 816.279 556.465C806.768 583.897 796.314 610.823 780.356 635.183C743.794 690.997 688.885 733.238 626.375 756.111C592.422 768.535 559.249 775.171 522.983 776.277C497.198 777.326 471.073 774.986 445.839 769.78C442.224 769.017 422.452 762.792 421.093 760.81C276.829 739.526 177.065 605.417 198.156 461.124C196.924 459.686 195.715 458.327 194.608 456.786Z"/><path style="transform: scale(1.02) translateY(10px) translateX(-4px); transform-origin: 0 100%;" fill="#324F89" d="M194.608 456.786C193.117 426.557 220.958 362.297 236.068 335.338C243.621 321.861 261.501 299.367 272.025 287.766C316.113 239.39 374.014 205.746 437.874 191.4C447.017 189.418 456.59 188.386 465.874 187.144C561.036 174.417 657.521 200.846 728.867 265.943C786.42 317.928 821.095 390.553 825.334 467.992C826.355 490.821 824.691 515.158 820.126 537.531C818.872 543.367 818.212 550.89 816.279 556.465C806.768 583.897 796.314 610.823 780.356 635.183C743.794 690.997 688.885 733.238 626.375 756.111C592.422 768.535 559.249 775.171 522.983 776.277C497.198 777.326 471.073 774.986 445.839 769.78C442.224 769.017 422.452 762.792 421.093 760.81C565.539 782.121 699.899 682.264 721.146 537.808C742.392 393.352 642.475 259.037 498.01 237.855C353.545 216.672 219.274 316.649 198.156 461.124C196.924 459.686 195.715 458.327 194.608 456.786Z"/><path fill="#022F60" d="M333.715 466.252C356.736 465.376 382.243 466.16 405.264 466.704C405.149 475.314 405.138 483.924 405.231 492.533C373.337 491.439 334.346 491.55 302.489 492.39L302.387 515.016C348.245 514.731 394.104 514.737 439.961 515.035L440.008 532.228C442.785 530.035 448.318 525.701 451.699 525.195C460.522 523.874 470.422 524.289 479.352 524.354L513.057 524.432L651.8 524.419C651.947 533.186 651.883 541.955 651.608 550.718L473.509 551.03C473.391 562.603 473.377 574.177 473.469 585.75L473.635 624.667L631.166 624.483C631.245 633.077 631.256 641.672 631.199 650.267C615.56 649.571 597.599 650.007 581.781 650.019L497.308 649.998C487.159 649.988 476.927 650.153 466.783 650.452C454.932 650.803 448.101 649.925 439.899 640.564C438.635 627.661 439.015 610.234 439.117 597.163L439.427 542.039C418.06 541.004 394.709 541.477 373.186 541.503L268.393 541.6L268.017 466.641C289.444 466.038 312.069 466.555 333.715 466.252Z"/><path fill="#022F60" d="M429.919 417.745L435.422 417.756L435.364 442.724C382.645 442.821 327.939 441.47 275.418 442.977L268.361 443.008L268.205 417.847C321.382 418.54 376.677 418.147 429.919 417.745Z"/><path fill="#0191D9" d="M163.311 741.091C151.504 730.754 140.437 719.602 130.192 707.716C59.3594 626.849 34.288 532.717 41.4627 426.775C42.3296 413.975 44.6539 401.503 47.08 388.925C62.6667 307.496 105.066 233.631 167.519 179.104C244.44 112.101 337.553 78.3732 439.633 85.3468C436.009 90.2821 423.841 93.2516 417.689 95.9906C407.081 100.714 397.035 105.594 386.802 111.131C286.702 166.333 215.008 261.732 189.825 373.236C184.436 378.759 182.64 381.672 179.041 388.656C116.217 499.003 111.395 622.779 166.83 737.157L163.311 741.091Z"/></svg>
